<?xml version="1.0" standalone="no"?>
<!DOCTYPE svg PUBLIC "-//W3C//DTD SVG 20010904//EN"
 "http://www.w3.org/TR/2001/REC-SVG-20010904/DTD/svg10.dtd">
<svg version="1.0" xmlns="http://www.w3.org/2000/svg"
 width="4000.000000pt" height="3000.000000pt" viewBox="0 0 4000.000000 3000.000000"
 preserveAspectRatio="xMidYMid meet">
<metadata>
Created by potrace 1.16, written by Peter Selinger 2001-2019
</metadata>
<g transform="translate(0.000000,3000.000000) scale(0.100000,-0.100000)"
fill="#000000" stroke="none">
<path d="M0 15000 l0 -15000 20000 0 20000 0 0 15000 0 15000 -20000 0 -20000
0 0 -15000z m11539 4294 c1 -188 -15 -178 254 -168 111 4 285 8 387 9 158 1
502 11 608 17 34 2 36 5 34 68 l-1 35 15 -34 c13 -30 13 -35 -1 -58 -10 -14
-22 -22 -31 -19 -24 9 -16 -21 11 -38 34 -23 67 -6 64 32 -1 15 0 90 2 167 l3
140 6 -170 c3 -93 2 -176 -1 -184 -8 -17 -24 -18 -634 -31 -236 -5 -671 -16
-965 -24 -594 -16 -959 -20 -1065 -9 -68 6 -69 7 -31 15 26 6 42 5 46 -2 5 -8
107 -10 351 -5 189 3 346 8 350 11 4 2 103 7 221 10 117 3 265 8 328 10 125 4
628 13 753 14 44 0 77 4 77 10 0 6 -37 10 -90 10 -53 0 -90 4 -90 10 0 6 -9
10 -21 10 -11 0 -17 -4 -14 -10 3 -5 0 -10 -7 -10 -7 0 -129 -1 -271 -3 -208
-3 -260 -1 -264 10 -3 7 -10 13 -17 13 -13 0 -15 22 -18 207 -2 78 0 135 4
125 4 -9 7 -81 7 -158z m-209 -195 c104 -1 110 -2 60 -10 -30 -5 -95 -9 -145
-8 -49 1 -124 -2 -165 -5 -109 -8 -737 -23 -792 -18 -74 6 -57 22 25 23 39 0
156 1 260 1 103 1 187 5 187 10 0 7 390 17 435 11 11 -1 72 -3 135 -4z m27205
-8844 c80 -21 87 -29 76 -89 -5 -27 -15 -52 -22 -57 -28 -18 -95 -10 -133 16
-20 14 -41 25 -46 25 -15 0 -12 46 4 85 17 41 31 43 121 20z m-20946 -1169
c12 -9 13 -8 6 4 -6 12 -5 13 5 3 9 -9 19 -9 32 -2 30 16 34 2 8 -26 -38 -41
-110 -54 -182 -35 -43 12 -55 36 -31 62 15 17 26 18 83 12 36 -3 71 -12 79
-18z m652 -148 c63 -1 86 -5 86 -15 0 -35 -114 -79 -178 -69 -69 11 -87 24
-87 63 l0 35 47 -7 c25 -3 85 -7 132 -7z m2722 -715 c70 -4 89 -9 97 -23 7
-13 4 -22 -11 -36 -17 -16 -37 -19 -110 -19 -99 0 -120 10 -126 66 -3 31 -2
31 29 24 18 -3 72 -9 121 -12z m9455 -2505 c57 -12 78 -34 67 -69 -17 -53
-141 -50 -210 5 -23 19 -26 27 -21 53 7 32 8 32 59 27 29 -3 76 -10 105 -16z
m537 -3400 c28 -222 28 -722 0 -1037 -11 -120 -25 -149 -46 -93 -22 58 -17
1159 6 1232 13 40 27 5 40 -102z"/>
</g>
</svg>
